<mxfile host="app.diagrams.net" agent="Mozilla/5.0 (X11; Ubuntu; Linux x86_64; rv:140.0) Gecko/20100101 Firefox/140.0" version="28.0.5">
  <diagram name="Page-1" id="QyTeDFzO0Lx-K44ou8np">
    <mxGraphModel dx="1055" dy="791" grid="1" gridSize="10" guides="1" tooltips="1" connect="1" arrows="1" fold="1" page="1" pageScale="1" pageWidth="850" pageHeight="1100" math="0" shadow="0">
      <root>
        <mxCell id="0" />
        <mxCell id="1" parent="0" />
        <mxCell id="ivrSB7jrcuk7AmbhE4pL-1" value="&lt;i&gt;User&lt;/i&gt;" style="swimlane;fontStyle=1;align=center;verticalAlign=top;childLayout=stackLayout;horizontal=1;startSize=26;horizontalStack=0;resizeParent=1;resizeParentMax=0;resizeLast=0;collapsible=1;marginBottom=0;whiteSpace=wrap;html=1;" parent="1" vertex="1">
          <mxGeometry x="77" y="41" width="160" height="190" as="geometry" />
        </mxCell>
        <mxCell id="ivrSB7jrcuk7AmbhE4pL-2" value="- id: Long&lt;div&gt;- name: String&lt;/div&gt;&lt;div&gt;- username: String&lt;/div&gt;&lt;div&gt;- password: String&lt;/div&gt;&lt;div&gt;- roles: List&amp;lt;Role&amp;gt;&lt;/div&gt;" style="text;strokeColor=none;fillColor=none;align=left;verticalAlign=top;spacingLeft=4;spacingRight=4;overflow=hidden;rotatable=0;points=[[0,0.5],[1,0.5]];portConstraint=eastwest;whiteSpace=wrap;html=1;" parent="ivrSB7jrcuk7AmbhE4pL-1" vertex="1">
          <mxGeometry y="26" width="160" height="84" as="geometry" />
        </mxCell>
        <mxCell id="ivrSB7jrcuk7AmbhE4pL-3" value="" style="line;strokeWidth=1;fillColor=none;align=left;verticalAlign=middle;spacingTop=-1;spacingLeft=3;spacingRight=3;rotatable=0;labelPosition=right;points=[];portConstraint=eastwest;strokeColor=inherit;" parent="ivrSB7jrcuk7AmbhE4pL-1" vertex="1">
          <mxGeometry y="110" width="160" height="8" as="geometry" />
        </mxCell>
        <mxCell id="ivrSB7jrcuk7AmbhE4pL-4" value="&lt;div&gt;+ login(): void&lt;/div&gt;&lt;div&gt;+ logout(): void&lt;/div&gt;&lt;div&gt;+ getRoles(): List&amp;lt;Role&amp;gt;&lt;/div&gt;&lt;div&gt;+ updateProfile(): void&lt;/div&gt;" style="text;strokeColor=none;fillColor=none;align=left;verticalAlign=top;spacingLeft=4;spacingRight=4;overflow=hidden;rotatable=0;points=[[0,0.5],[1,0.5]];portConstraint=eastwest;whiteSpace=wrap;html=1;" parent="ivrSB7jrcuk7AmbhE4pL-1" vertex="1">
          <mxGeometry y="118" width="160" height="72" as="geometry" />
        </mxCell>
        <mxCell id="ivrSB7jrcuk7AmbhE4pL-5" value="&lt;i&gt;Role&lt;/i&gt;" style="swimlane;fontStyle=1;align=center;verticalAlign=top;childLayout=stackLayout;horizontal=1;startSize=26;horizontalStack=0;resizeParent=1;resizeParentMax=0;resizeLast=0;collapsible=1;marginBottom=0;whiteSpace=wrap;html=1;" parent="1" vertex="1">
          <mxGeometry x="607" y="50" width="160" height="130" as="geometry" />
        </mxCell>
        <mxCell id="ivrSB7jrcuk7AmbhE4pL-6" value="- id: Long&lt;div&gt;- name: String&lt;/div&gt;&lt;div&gt;- type: String&lt;/div&gt;" style="text;strokeColor=none;fillColor=none;align=left;verticalAlign=top;spacingLeft=4;spacingRight=4;overflow=hidden;rotatable=0;points=[[0,0.5],[1,0.5]];portConstraint=eastwest;whiteSpace=wrap;html=1;" parent="ivrSB7jrcuk7AmbhE4pL-5" vertex="1">
          <mxGeometry y="26" width="160" height="54" as="geometry" />
        </mxCell>
        <mxCell id="ivrSB7jrcuk7AmbhE4pL-7" value="" style="line;strokeWidth=1;fillColor=none;align=left;verticalAlign=middle;spacingTop=-1;spacingLeft=3;spacingRight=3;rotatable=0;labelPosition=right;points=[];portConstraint=eastwest;strokeColor=inherit;" parent="ivrSB7jrcuk7AmbhE4pL-5" vertex="1">
          <mxGeometry y="80" width="160" height="8" as="geometry" />
        </mxCell>
        <mxCell id="ivrSB7jrcuk7AmbhE4pL-8" value="&lt;div&gt;+ addPermission(): void&lt;/div&gt;&lt;div&gt;+ deletePermission(): void&lt;/div&gt;" style="text;strokeColor=none;fillColor=none;align=left;verticalAlign=top;spacingLeft=4;spacingRight=4;overflow=hidden;rotatable=0;points=[[0,0.5],[1,0.5]];portConstraint=eastwest;whiteSpace=wrap;html=1;" parent="ivrSB7jrcuk7AmbhE4pL-5" vertex="1">
          <mxGeometry y="88" width="160" height="42" as="geometry" />
        </mxCell>
        <mxCell id="ivrSB7jrcuk7AmbhE4pL-9" value="Movie" style="swimlane;fontStyle=1;align=center;verticalAlign=top;childLayout=stackLayout;horizontal=1;startSize=26;horizontalStack=0;resizeParent=1;resizeParentMax=0;resizeLast=0;collapsible=1;marginBottom=0;whiteSpace=wrap;html=1;" parent="1" vertex="1">
          <mxGeometry x="77" y="280" width="160" height="220" as="geometry" />
        </mxCell>
        <mxCell id="ivrSB7jrcuk7AmbhE4pL-10" value="- id: Long&lt;div&gt;- title: String&lt;/div&gt;&lt;div&gt;- release_date: Date&lt;/div&gt;&lt;div&gt;- overall_rating: Float&lt;/div&gt;&lt;div&gt;- synopsis: String&lt;/div&gt;&lt;div&gt;- director: String&lt;/div&gt;&lt;div&gt;- thumbnail_path: String&lt;/div&gt;&lt;div&gt;- actors: List&amp;lt;Actor&amp;gt;&lt;/div&gt;" style="text;strokeColor=none;fillColor=none;align=left;verticalAlign=top;spacingLeft=4;spacingRight=4;overflow=hidden;rotatable=0;points=[[0,0.5],[1,0.5]];portConstraint=eastwest;whiteSpace=wrap;html=1;" parent="ivrSB7jrcuk7AmbhE4pL-9" vertex="1">
          <mxGeometry y="26" width="160" height="124" as="geometry" />
        </mxCell>
        <mxCell id="ivrSB7jrcuk7AmbhE4pL-11" value="" style="line;strokeWidth=1;fillColor=none;align=left;verticalAlign=middle;spacingTop=-1;spacingLeft=3;spacingRight=3;rotatable=0;labelPosition=right;points=[];portConstraint=eastwest;strokeColor=inherit;" parent="ivrSB7jrcuk7AmbhE4pL-9" vertex="1">
          <mxGeometry y="150" width="160" height="8" as="geometry" />
        </mxCell>
        <mxCell id="ivrSB7jrcuk7AmbhE4pL-12" value="&lt;div&gt;+ getDetails(): List&lt;/div&gt;&lt;div&gt;+ addActor(): void&lt;/div&gt;&lt;div&gt;+ deleteActor(): void&lt;/div&gt;" style="text;strokeColor=none;fillColor=none;align=left;verticalAlign=top;spacingLeft=4;spacingRight=4;overflow=hidden;rotatable=0;points=[[0,0.5],[1,0.5]];portConstraint=eastwest;whiteSpace=wrap;html=1;" parent="ivrSB7jrcuk7AmbhE4pL-9" vertex="1">
          <mxGeometry y="158" width="160" height="62" as="geometry" />
        </mxCell>
        <mxCell id="ivrSB7jrcuk7AmbhE4pL-13" value="MovieActor" style="swimlane;fontStyle=1;align=center;verticalAlign=top;childLayout=stackLayout;horizontal=1;startSize=26;horizontalStack=0;resizeParent=1;resizeParentMax=0;resizeLast=0;collapsible=1;marginBottom=0;whiteSpace=wrap;html=1;" parent="1" vertex="1">
          <mxGeometry x="346" y="287" width="160" height="130" as="geometry" />
        </mxCell>
        <mxCell id="ivrSB7jrcuk7AmbhE4pL-14" value="- movie_id: Long&lt;div&gt;- actor_id: Long&lt;/div&gt;&lt;div&gt;- cast_name: String&lt;/div&gt;" style="text;strokeColor=none;fillColor=none;align=left;verticalAlign=top;spacingLeft=4;spacingRight=4;overflow=hidden;rotatable=0;points=[[0,0.5],[1,0.5]];portConstraint=eastwest;whiteSpace=wrap;html=1;" parent="ivrSB7jrcuk7AmbhE4pL-13" vertex="1">
          <mxGeometry y="26" width="160" height="54" as="geometry" />
        </mxCell>
        <mxCell id="ivrSB7jrcuk7AmbhE4pL-15" value="" style="line;strokeWidth=1;fillColor=none;align=left;verticalAlign=middle;spacingTop=-1;spacingLeft=3;spacingRight=3;rotatable=0;labelPosition=right;points=[];portConstraint=eastwest;strokeColor=inherit;" parent="ivrSB7jrcuk7AmbhE4pL-13" vertex="1">
          <mxGeometry y="80" width="160" height="8" as="geometry" />
        </mxCell>
        <mxCell id="ivrSB7jrcuk7AmbhE4pL-16" value="&lt;div&gt;+ addCastName(): void&lt;/div&gt;&lt;div&gt;+ deleteCastName(): void&lt;/div&gt;" style="text;strokeColor=none;fillColor=none;align=left;verticalAlign=top;spacingLeft=4;spacingRight=4;overflow=hidden;rotatable=0;points=[[0,0.5],[1,0.5]];portConstraint=eastwest;whiteSpace=wrap;html=1;" parent="ivrSB7jrcuk7AmbhE4pL-13" vertex="1">
          <mxGeometry y="88" width="160" height="42" as="geometry" />
        </mxCell>
        <mxCell id="ivrSB7jrcuk7AmbhE4pL-17" value="UserRole" style="swimlane;fontStyle=1;align=center;verticalAlign=top;childLayout=stackLayout;horizontal=1;startSize=26;horizontalStack=0;resizeParent=1;resizeParentMax=0;resizeLast=0;collapsible=1;marginBottom=0;whiteSpace=wrap;html=1;" parent="1" vertex="1">
          <mxGeometry x="350" y="55" width="160" height="120" as="geometry" />
        </mxCell>
        <mxCell id="ivrSB7jrcuk7AmbhE4pL-18" value="- user_id: Long&lt;div&gt;- role_id: Long&lt;/div&gt;" style="text;strokeColor=none;fillColor=none;align=left;verticalAlign=top;spacingLeft=4;spacingRight=4;overflow=hidden;rotatable=0;points=[[0,0.5],[1,0.5]];portConstraint=eastwest;whiteSpace=wrap;html=1;" parent="ivrSB7jrcuk7AmbhE4pL-17" vertex="1">
          <mxGeometry y="26" width="160" height="44" as="geometry" />
        </mxCell>
        <mxCell id="ivrSB7jrcuk7AmbhE4pL-19" value="" style="line;strokeWidth=1;fillColor=none;align=left;verticalAlign=middle;spacingTop=-1;spacingLeft=3;spacingRight=3;rotatable=0;labelPosition=right;points=[];portConstraint=eastwest;strokeColor=inherit;" parent="ivrSB7jrcuk7AmbhE4pL-17" vertex="1">
          <mxGeometry y="70" width="160" height="8" as="geometry" />
        </mxCell>
        <mxCell id="ivrSB7jrcuk7AmbhE4pL-20" value="&lt;div&gt;+ addRole(): void&lt;/div&gt;&lt;div&gt;+ deleteRole(): void&lt;/div&gt;" style="text;strokeColor=none;fillColor=none;align=left;verticalAlign=top;spacingLeft=4;spacingRight=4;overflow=hidden;rotatable=0;points=[[0,0.5],[1,0.5]];portConstraint=eastwest;whiteSpace=wrap;html=1;" parent="ivrSB7jrcuk7AmbhE4pL-17" vertex="1">
          <mxGeometry y="78" width="160" height="42" as="geometry" />
        </mxCell>
        <mxCell id="ivrSB7jrcuk7AmbhE4pL-21" value="Actor" style="swimlane;fontStyle=1;align=center;verticalAlign=top;childLayout=stackLayout;horizontal=1;startSize=26;horizontalStack=0;resizeParent=1;resizeParentMax=0;resizeLast=0;collapsible=1;marginBottom=0;whiteSpace=wrap;html=1;" parent="1" vertex="1">
          <mxGeometry x="607" y="277" width="160" height="250" as="geometry" />
        </mxCell>
        <mxCell id="ivrSB7jrcuk7AmbhE4pL-22" value="- id: Long&lt;div&gt;- first_name: String&lt;/div&gt;&lt;div&gt;- last_name: String&lt;/div&gt;&lt;div&gt;- birth_name: String&lt;/div&gt;&lt;div&gt;- birth_place: String&lt;/div&gt;&lt;div&gt;- birth_date: Date&lt;/div&gt;&lt;div&gt;- sex: Char&lt;/div&gt;&lt;div&gt;- thumbnail_path: String&lt;/div&gt;&lt;div&gt;- biography: String&lt;/div&gt;&lt;div&gt;- height: Float&lt;/div&gt;" style="text;strokeColor=none;fillColor=none;align=left;verticalAlign=top;spacingLeft=4;spacingRight=4;overflow=hidden;rotatable=0;points=[[0,0.5],[1,0.5]];portConstraint=eastwest;whiteSpace=wrap;html=1;" parent="ivrSB7jrcuk7AmbhE4pL-21" vertex="1">
          <mxGeometry y="26" width="160" height="154" as="geometry" />
        </mxCell>
        <mxCell id="ivrSB7jrcuk7AmbhE4pL-23" value="" style="line;strokeWidth=1;fillColor=none;align=left;verticalAlign=middle;spacingTop=-1;spacingLeft=3;spacingRight=3;rotatable=0;labelPosition=right;points=[];portConstraint=eastwest;strokeColor=inherit;" parent="ivrSB7jrcuk7AmbhE4pL-21" vertex="1">
          <mxGeometry y="180" width="160" height="8" as="geometry" />
        </mxCell>
        <mxCell id="ivrSB7jrcuk7AmbhE4pL-24" value="&lt;div&gt;+ getDetails(): List&lt;/div&gt;&lt;div&gt;+ addMovie(): void&lt;/div&gt;&lt;div&gt;+ deleteMovie(): void&lt;/div&gt;" style="text;strokeColor=none;fillColor=none;align=left;verticalAlign=top;spacingLeft=4;spacingRight=4;overflow=hidden;rotatable=0;points=[[0,0.5],[1,0.5]];portConstraint=eastwest;whiteSpace=wrap;html=1;" parent="ivrSB7jrcuk7AmbhE4pL-21" vertex="1">
          <mxGeometry y="188" width="160" height="62" as="geometry" />
        </mxCell>
        <mxCell id="9d1cN1tCkW-GWZ-emTJo-2" value="" style="endArrow=open;html=1;endSize=12;startArrow=diamondThin;startSize=14;startFill=0;edgeStyle=orthogonalEdgeStyle;rounded=0;entryX=1.019;entryY=0.429;entryDx=0;entryDy=0;entryPerimeter=0;exitX=0;exitY=0.5;exitDx=0;exitDy=0;" edge="1" parent="1" source="ivrSB7jrcuk7AmbhE4pL-18" target="ivrSB7jrcuk7AmbhE4pL-2">
          <mxGeometry relative="1" as="geometry">
            <mxPoint x="280" y="120" as="sourcePoint" />
            <mxPoint x="420" y="660" as="targetPoint" />
          </mxGeometry>
        </mxCell>
        <mxCell id="9d1cN1tCkW-GWZ-emTJo-3" value="0..*" style="edgeLabel;resizable=0;html=1;align=left;verticalAlign=top;" connectable="0" vertex="1" parent="9d1cN1tCkW-GWZ-emTJo-2">
          <mxGeometry x="-1" relative="1" as="geometry">
            <mxPoint x="-23" as="offset" />
          </mxGeometry>
        </mxCell>
        <mxCell id="9d1cN1tCkW-GWZ-emTJo-4" value="1" style="edgeLabel;resizable=0;html=1;align=right;verticalAlign=top;" connectable="0" vertex="1" parent="9d1cN1tCkW-GWZ-emTJo-2">
          <mxGeometry x="1" relative="1" as="geometry">
            <mxPoint x="10" as="offset" />
          </mxGeometry>
        </mxCell>
        <mxCell id="9d1cN1tCkW-GWZ-emTJo-5" value="" style="endArrow=open;html=1;endSize=12;startArrow=diamondThin;startSize=14;startFill=0;edgeStyle=orthogonalEdgeStyle;rounded=0;entryX=0;entryY=0.5;entryDx=0;entryDy=0;exitX=1;exitY=0.5;exitDx=0;exitDy=0;" edge="1" parent="1" source="ivrSB7jrcuk7AmbhE4pL-18" target="ivrSB7jrcuk7AmbhE4pL-6">
          <mxGeometry relative="1" as="geometry">
            <mxPoint x="427" y="171" as="sourcePoint" />
            <mxPoint x="280" y="170" as="targetPoint" />
          </mxGeometry>
        </mxCell>
        <mxCell id="9d1cN1tCkW-GWZ-emTJo-6" value="0..*" style="edgeLabel;resizable=0;html=1;align=left;verticalAlign=top;" connectable="0" vertex="1" parent="9d1cN1tCkW-GWZ-emTJo-5">
          <mxGeometry x="-1" relative="1" as="geometry">
            <mxPoint x="3" as="offset" />
          </mxGeometry>
        </mxCell>
        <mxCell id="9d1cN1tCkW-GWZ-emTJo-7" value="1" style="edgeLabel;resizable=0;html=1;align=right;verticalAlign=top;" connectable="0" vertex="1" parent="9d1cN1tCkW-GWZ-emTJo-5">
          <mxGeometry x="1" relative="1" as="geometry">
            <mxPoint x="-4" as="offset" />
          </mxGeometry>
        </mxCell>
        <mxCell id="9d1cN1tCkW-GWZ-emTJo-8" value="" style="endArrow=open;html=1;endSize=12;startArrow=diamondThin;startSize=14;startFill=0;edgeStyle=orthogonalEdgeStyle;rounded=0;entryX=1.019;entryY=0.429;entryDx=0;entryDy=0;entryPerimeter=0;" edge="1" parent="1" source="ivrSB7jrcuk7AmbhE4pL-14">
          <mxGeometry relative="1" as="geometry">
            <mxPoint x="340" y="340" as="sourcePoint" />
            <mxPoint x="237" y="340" as="targetPoint" />
          </mxGeometry>
        </mxCell>
        <mxCell id="9d1cN1tCkW-GWZ-emTJo-9" value="1..*" style="edgeLabel;resizable=0;html=1;align=left;verticalAlign=top;" connectable="0" vertex="1" parent="9d1cN1tCkW-GWZ-emTJo-8">
          <mxGeometry x="-1" relative="1" as="geometry">
            <mxPoint x="-23" as="offset" />
          </mxGeometry>
        </mxCell>
        <mxCell id="9d1cN1tCkW-GWZ-emTJo-10" value="1" style="edgeLabel;resizable=0;html=1;align=right;verticalAlign=top;" connectable="0" vertex="1" parent="9d1cN1tCkW-GWZ-emTJo-8">
          <mxGeometry x="1" relative="1" as="geometry">
            <mxPoint x="10" as="offset" />
          </mxGeometry>
        </mxCell>
        <mxCell id="9d1cN1tCkW-GWZ-emTJo-12" value="" style="endArrow=open;html=1;endSize=12;startArrow=diamondThin;startSize=14;startFill=0;edgeStyle=orthogonalEdgeStyle;rounded=0;entryX=0.019;entryY=0.24;entryDx=0;entryDy=0;entryPerimeter=0;" edge="1" parent="1" source="ivrSB7jrcuk7AmbhE4pL-14" target="ivrSB7jrcuk7AmbhE4pL-22">
          <mxGeometry relative="1" as="geometry">
            <mxPoint x="259" y="390" as="sourcePoint" />
            <mxPoint x="150" y="390" as="targetPoint" />
          </mxGeometry>
        </mxCell>
        <mxCell id="9d1cN1tCkW-GWZ-emTJo-13" value="1..*" style="edgeLabel;resizable=0;html=1;align=left;verticalAlign=top;" connectable="0" vertex="1" parent="9d1cN1tCkW-GWZ-emTJo-12">
          <mxGeometry x="-1" relative="1" as="geometry">
            <mxPoint x="3" as="offset" />
          </mxGeometry>
        </mxCell>
        <mxCell id="9d1cN1tCkW-GWZ-emTJo-14" value="1" style="edgeLabel;resizable=0;html=1;align=right;verticalAlign=top;" connectable="0" vertex="1" parent="9d1cN1tCkW-GWZ-emTJo-12">
          <mxGeometry x="1" relative="1" as="geometry">
            <mxPoint x="-9" as="offset" />
          </mxGeometry>
        </mxCell>
      </root>
    </mxGraphModel>
  </diagram>
</mxfile>
